<svg width="26" height="15" viewBox="0 0 26 15" fill="none" xmlns="http://www.w3.org/2000/svg">
<path d="M0.460938 7.57031C0.460938 10.2891 1.17969 12.4922 2.71875 14.4062H4.20312C3.07812 13.0938 2.19531 10.1328 2.19531 7.5625C2.19531 4.99219 3.07812 2.03906 4.20312 0.726562H2.71875C1.17969 2.63281 0.460938 4.83594 0.460938 7.57031ZM8.22656 12H9.9375V0.726562H8.21094L5.24219 2.83594V4.55469L8.1875 2.46094H8.22656V12ZM18.0469 12H19.7266V9.77344H21.2734V8.30469H19.7266V0.726562H17.1953C14.6562 4.39844 13.375 6.42188 12.4062 8.24219V9.77344H18.0469V12ZM14.0391 8.28906C14.9375 6.65625 16.0781 4.89844 18.0312 2.07812H18.0625V8.32812H14.0391V8.28906ZM25.7891 7.57031C25.7891 4.14062 24.6797 2.14062 23.5312 0.726562H22.0469C22.8203 1.625 24.0547 4.1875 24.0547 7.5625C24.0547 10.9375 22.8281 13.5 22.0469 14.4062H23.5312C24.6797 12.9844 25.7891 10.9844 25.7891 7.57031Z" fill="#0071E4"/>
</svg>
